<?xml version="1.0" encoding="utf-8"?>
<!-- Generator: Adobe Illustrator 19.1.0, SVG Export Plug-In . SVG Version: 6.00 Build 0)  -->
<svg version="1.1" id="Layer_1" xmlns="http://www.w3.org/2000/svg" xmlns:xlink="http://www.w3.org/1999/xlink" x="0px" y="0px"
	 viewBox="0 0 400 400" style="enable-background:new 0 0 400 400;" xml:space="preserve">
<style type="text/css">
	.st0{fill:#E6E6E6;}
	.st1{opacity:0.56;fill:#848B9A;}
	.st2{fill:#FFFFFF;}
	.st3{clip-path:url(#SVGID_2_);}
	.st4{fill:#1B2844;}
	.st5{clip-path:url(#SVGID_4_);}
	.st6{fill:#F4A28C;}
	.st7{clip-path:url(#SVGID_6_);}
	.st8{fill:#848B9A;}
	.st9{fill:#AFDAF4;}
	.st10{fill:#F69B9B;}
	.st11{fill:#6ABE55;}
	.st12{clip-path:url(#SVGID_8_);}
</style>
<path class="st0" d="M199.9,97.7c77.3,65.2,158.4,40.2,167.4,115.2c9.7,79.7-16.2,31.7-78.4,81.5c-90.8,72.6-227.2,47.3-232.2-82.2
	C53.4,125.8,138.6,45.9,199.9,97.7z"/>
<path class="st1" d="M36,272.4c0.7-1.5,1.1-3,1.9-4.3c0.9-1.2,2.4-2.2,4-1.6c7.1,2.3,14.1,2.2,18-3.6c0,0.1,0,0.2,0,0.3
	c0,0.1,0.1,0.1,0.2,0.1c0.1,0.2,0.4,0.3,0.6,0.4c0.9,0.4,1.9,0.4,2.9,0.3c1.2-0.2,2.2-1,3.3-1.6c0.7-0.4,1.4-0.8,2.2-1
	c0,0.4,0,0.8-0.1,1.2c0,0-0.1,0-0.1,0c-0.9,1.2-2.6,1.5-4.1,2.4c-1.3,0.6-2.3,1.6-3.2,2.7c-0.8,1-1.5,2.1-2,3.3
	c-1.2,2.6-1.5,5.5-1.7,8.3c0,0.6-0.3,3.6,0.7,3.1c0.9-1,1.4-2.2,2.4-2.9c2.9-2,6.5-2.4,9.1-4.9c2.6-2.7,4.4-7.8,1.3-10.6
	c-0.5-0.4-1-0.7-1.6-0.9c-0.1,0-0.2-0.1-0.3-0.1c0.1-0.5,0.2-1.1,0.2-1.6c0.6-0.2,1.2-0.3,1.9-0.3c0.9,0,1.9,0.1,2.8-0.1
	c1.6-0.3,2.8-1.7,3.3-3.2c0.1-0.5,0.3-1.1,0.3-1.7c0.8,0.6,1.7,1.2,2.6,1.5c1.4,0.4,3.2,0.2,3.7-1.4c0.3-1,0.1-2.1,0-3.1
	c-0.1-0.7,0.1-1.7,0.2-2.5c0.1,0.4,0.2,0.7,0.4,1.1c0.3,0.4,0.6,0.8,0.9,1.2c-0.1,2.2-0.2,4.7,1.1,6.6c-3-0.5-3.7,4.4-7.9,2
	c-0.5-0.2-2-1.4-2.2-0.3c0,0.3,0.1,0.6,0.2,0.9c0.3,0.7,0.7,1.4,1.1,2c1.5,1.7,4,3,6.2,2.4c0.8-0.2,1.5-0.8,2-1.2
	c0.6-0.4,1.2-0.7,1.9-0.9c1.4-0.5,2.9-0.6,4.1-1.4c0.3-0.2,0.5-0.4,0.8-0.7c0.2,1.1,1,2.2,2.7,3.3c2.3,1.2,4.5,1.8,6.4,3.7
	c0.3,0.3,0.9,1.1,1.3,1.6c0.5,0.6,0.9,0.3,1-0.4c0.8-2.7,0.9-5.7-0.3-8.3c-0.6-1.4-1.5-2.9-1.9-4.2c-0.2-1.1-0.2-2-0.1-3.2
	c0.1-1.7,0.7-3.4,1.5-4.9c0.3-0.6,0.8-1.1,1.1-1.7c0.8,1.5,1,3.3,0.7,4.8c-0.5,2.1-1.7,4.4-0.8,6.6c0.4,1.1,1.1,2,2.2,2.3
	c0.6,0.2,1.3,0.2,1.9,0.4c0.3,0.1,0.7,0.3,1,0.5l0.2,0c0.1,0,0.2-0.2,0.2-0.3c0,0,0,0,0,0c0.3-0.3,0.5-1.3,0.6-1.5
	c1.4-3.8,3.5-6,2-10.4c-0.2-0.6-0.4-1.1-0.6-1.6c0.4-0.1,0.8-0.2,1.2-0.3c2.1-0.5,4.4-0.4,6.2,0.7c0.6,0.3,1.4,0.8,1.8,1.2
	c0.2,0.2,0.3,0.5,0.6,0.6c0.6-0.1,0.1-0.8,0.1-1.1c-0.5-1.7-0.8-3.4-0.7-5.1c0-3,1.6-5.6,2.5-8.6c0.6-2.5,0.1-5.3-1.1-7.6
	c-1.7-3.1-5.3-5.1-8.8-3.8l-0.5,0.3c-1.3-1.6-3.2-2.7-5.1-3.4c-1.2-0.5-2.5-0.7-3.8-1.1c-2.2-0.8-4.8-2.1-6.9-0.6
	c0-0.1,0.1-0.2,0.1-0.2c1.3-2.2,1.4-4.9,1.6-7.5c0-1.2,0.3-2.4,0.6-3.6c0,0,0,0,0,0c0,0,0,0,0,0c0.8-0.1,1.6,0.4,2.5,0.5
	c0.8,0.1,1.7,0.1,2.5,0c0.2,0.5,0.4,0.9,0.7,1.3c0.7,0.9,1.6,1.6,2.7,2.1c2.4,1,3.5-1,4.5-2.7c0.4-0.6,1-1,1.7-1.5
	c0.7-0.5,1.2-1.2,1.6-2c0.6-1.2,0.9-2.7,0.3-3.9c-0.4-0.8-1.3-1.1-2.1-1.4c-1.3-0.4-2.5-0.5-3.8-1c-0.9-0.3-1.7-0.8-2.6-1
	c-0.7-0.2-1.5-0.2-2.2-0.1c-0.8,0.2-1.6,0.3-2.4,0.3c0.5-1.9,0.8-4.1,2-5.4c1-1.3,2.6-1.8,4.1-1.9c0.2,0,0.5,0,0.7,0.1
	c0.7,1.2,1.5,2.4,2.9,2.8c1,0.4,2.2,0.2,2.9-0.5c0.1-0.2,0.2-0.3,0.3-0.5c0.6,2,1.8,3,4,2.9c0.6,0,1.2-0.1,1.8-0.2
	c0.2,0,0.5-0.1,0.7-0.2c0.4-0.3,0.4-1,0-1.2c-0.6-0.3-1.4,0-2,0.1c-0.7,0.1-1.1,0.4-1.7,0.2c-0.8-0.3-1.6-1.3-2.3-1.9
	c1.1-0.3,2.1-0.9,2.7-1.8c0.7-0.8,1.5-1.2,2.6-1.4c1-0.2,2.1-0.5,2.8-1.3c1-1.4,1-3.5-0.3-4.7c-1.9-1.8-4.2-0.7-4.2,1.9
	c0,0.8,0.1,1.9-0.1,2.4c-0.3,0.7-0.9,1.3-1.7,1.8c-0.7,0.3-1.4,0.7-1.9,1.3c0-1.9-1.3-2.9-3-4.2c-1.3-1-2.8-1.8-4.4-2.3
	c-0.7-0.2-1.4-0.4-2.1-0.2c-0.7,0.3-0.6,1.2-0.2,1.8c0.8,1.4,2.5,2.2,2.6,3.7c0.1,0.3,0,0.7,0,1c-1.7,0-3.4,0.6-4.5,1.8
	c-1.5,1.6-1.8,3.8-2.3,5.9c-1.3,0.1-2.7,0.1-4,0.3c-0.1,0-0.1,0-0.1,0.1c0,0-0.1,0-0.1,0c-0.1,0-0.2,0.2-0.1,0.3c0,0,0,0.1,0.1,0.1
	c1.3,0.6,2.4,1.6,3.3,2.7c-0.9,2.3-2,4.5-2.5,6.9c-0.6,2.6-0.3,5.4-1,7.7c-0.3,1.2-0.8,2-1.3,3.1c0.1-0.1,0,0.1-0.1,0.2
	c-0.1,0.1-0.3,0.3-0.3,0.5l-0.1,0c-2.6-0.8-5.2,1.2-7.5,1.9c-0.7,0.2-1.5,0.4-2.1,0.5c-0.6,0.1-2.5,0.1-1.2,1c1.3,0.9,2.7,1.6,4,2.6
	c0.7,0.7,1.4,1.6,1.9,2.6c1.3,2.6,2.3,5.6,4.2,7.9c0,0.1,0,0.1,0,0.2c0.8,1.5,0.1,3.1-1.5,4c-0.7,0.4-1.8,0.5-2.7,1
	c-2.5-1-5.2,0.7-6.5,2.8c-0.5,1-0.7,2.2-0.7,3.2c0,0.3,0,0.7,0,1c-0.1-0.2-0.3-0.2-0.5-0.2c-0.9,0.1-1.5,1.4-1.8,1.8
	c-0.5,0.6-1.3,0.8-2,0.9c0.9-2.1,1.2-4.7,1.3-6.3c0-0.5,0.1-1.1,0-1.6c0.1,0,0.1-0.1,0.1-0.2c0-0.3,0.8-0.8,1.1-1.3
	c0.4-0.7,0.5-1.5,0.5-2.2c0.1-1.6-0.6-3.1-1.6-4.3c-0.9-1.3-2.6-1.9-3.8-2.6c-1.6-0.9-3-2-3.6-3.7c-0.3-0.8-0.4-1.6-0.3-2.4
	c0.2-1.1,0.1-2.8-1.4-2.5c-2.2,1.2-2.1,6.4-1.5,8.5c0.8,3.3,2.1,7.1,1.6,10.1c-0.2,1-0.6,1.6-1.3,1.7c-0.1,0-0.1,0-0.1,0
	c-0.7-1.6-1.6-3.1-2.5-4.6c-0.1-0.1-0.2-0.2-0.2-0.4c0.3-0.5,0.6-1.1,0.8-1.6c0.3-0.7,0.5-1.5,0.6-2.3c0.2-0.1,0.1-0.5,0.1-0.7
	c-0.1-1-0.6-2-1-2.9c-0.7-1.5-0.7-3.1-1.3-4.7c-0.8-1.7-2.5-3.1-4.4-3.3c-0.2,0-0.3,0-0.5,0c-0.2-1.3-0.3-2.5-0.3-3.8
	c0.9-0.3,1.7-0.9,2.1-1.9c0.2-0.4,0.3-0.9,0.3-1.3c1.1-0.3,2.2-0.7,2.6-1.8c0.1-0.3,0.2-0.6,0.3-0.9c0.3,0.5,0.6,1,1,1.4
	c1.4,1.2,2.8-0.8,3.4-1.8c0.9-1.5,2.9-2.7,3.5-4.6c0.7-1.9,0.4-4.2-1-5.7c-1-1-2.3-1.7-3.6-2c-1-0.2-2.1,0-3.1,0.4l0,0
	c-0.8-0.5-1.7-0.8-2.6-0.9c-1.4-0.2-2.6,0.5-3.9,0.8c-0.4,0.1-0.7,0.1-1.1,0.1l-0.1,0c0,0-0.1,0-0.1,0c-0.6-1.2-1.1-2.3-1.6-3.5
	c-0.4-1-0.9-2-1.3-3c0.6,0.1,1.2,0,1.8-0.1c0.9-0.3,1.7-1.2,1.6-2.2c-0.1-0.6-0.4-1.2-0.3-1.7c0-0.4,0.3-0.7,0.6-1.2
	c0.4-0.9,0-2-0.5-2.8c-0.9-1.3-2.6-2-4.1-1.7c-0.6,0.1-1,0-1.5-0.2c1-0.9,1.3-2.5,2-3.5c0.2-0.2,0.4-0.4,0.6-0.6
	c0,0.1,0,0.2,0.1,0.3c0,0.1,0,0.2,0.1,0.2c0.4,1.5,1.1,2.9,2.1,4.2c0.7,1,1.8,1.9,3.1,1.9c0.7,0.1,1.3-0.2,1.9-0.6
	c0.6-0.4,1.3-0.7,1.9-1c1.7-0.8,3.7-0.6,5.1,0.6c0.5,0.3,0.8,0.9,1.3,1.4c0.1,0.1,0.2,0.2,0.4,0.1c0.1-0.1,0.1-0.1,0.1-0.2
	c0-0.2-0.2-0.3-0.3-0.4c-0.9-1.3-1.5-3-2.5-4.4c-1.3-1.8-2.7-3.7-4.6-4.9c-1.3-0.7-2.8-1-4.2-1c-1.5,0-2.8,0.7-3.7,1.9
	c-0.3,0.4-0.5,0.9-0.6,1.3c-0.1,0-0.1,0.1-0.2,0.1c-1.2,0.9-1.5,2.2-2.1,3.4c-0.3,0.6-0.6,0.9-1.1,1.2l-0.1,0.1
	c-0.8-3-1.5-6.1-1.3-9.1c0-0.2,0-0.3,0.1-0.5c0.2,0,0.5,0,0.7-0.1c0.9-0.2,1.4-1,1.6-1.9c0.4-1.1,0.4-2.5-0.3-3.5
	c-0.1-0.2-0.3-0.4-0.5-0.6c0-0.1,0-0.1,0-0.2c0.6,0.3,1.2,0.1,1.7-0.3l0,0c0.2,0.2,0.6,0.1,0.8,0.2c0.2,0,0.9,0.2,1.1,0.3
	c0.7,0.4,0.9,0.8,1.4,1.4c0.4,0.5,0.9,0.9,1.5,1.1c1.3,0.6,2.8,0.6,3.5,1.7c0.5,0.8,0.9,2.1,1.6,2.9c0.4,0.5,0.8,0.9,1.3,1.3
	c0.2,0.2,0.5,0.5,0.9,0.5c0.8,0,0.4-0.8,0.2-1.2c-0.2-0.6-0.3-1.3-0.3-1.9c0-1.1,0.6-2.1,0.5-3.3c0.1-1-0.2-1.9-0.7-2.7
	c-0.6-1.1-1.4-2.1-2.4-2.9c-1.5-1.1-3.4-1.5-5.2-1c-0.8,0.3-1.6,0.8-2.3,1.3c-1,0.7-2.1,2.1-2.9,2.2c-0.3,0-0.3,0-0.6-0.2
	c0.2-1.3,0.4-2.6,0.6-3.9c0.2-0.9,0.6-2.1,1.3-3.1c0.1,0,0.1,0,0.2,0c0.6-0.4,1.5,0,2.5,0.2c1.8,0.3,3.6,0.3,3.6-2
	c0-0.7-0.1-1.6,0.1-2c0.2-0.8,0.5-1.8,0.1-2.6c0.7-0.5,1.4-1,2.2-1.5c1.3-0.8,2.6-1.4,4-1.9c0.5,0.2,1,0.6,1.6,0.7
	c1.1,0.2,2.5,0.1,3.4,0.2c1.1,0.2,1.9,0.8,2.9,1.3c1.1,0.4,2.4,0.2,3.5,0.2c0.4,0,1.2,0.1,0.8-0.5c-2.1-2.4-4.3-4.8-7.3-6.1
	c-2.1-0.8-5.7-0.5-6.3,2.1c0,0.8,0.3,1.3,0.4,1.9c-0.4,0.1-0.7,0.3-1.1,0.5c-1.6,0.7-3.1,1.7-4.4,2.7c-0.4-0.7-1.1-1.2-1.8-1.7
	c-0.7-0.5-1.4-0.9-2.3-1.2c-1.6-0.6-3.5,0.4-4.8,1c-0.5,0.3-1.1,0.4-1.6,0.4c-0.5,0-1-0.1-1.3,0.2c-0.6,0.5-0.5,1.5-0.2,2.1
	c0.2,0.4,0.7,0.7,1.2,0.9c0.7,0.3,1.9,0.2,2.4,0.3c0.6,0.1,1.1,0.3,1.4,0.8c0.1,0.2,0.2,0.4,0.2,0.7c0,0.4-0.2,0.9-0.2,1.3
	c-0.1,0.5,0.2,1.1,0.5,1.5c0,0.1,0.1,0.1,0.1,0.2c-0.7,1.1-1.3,2.3-1.5,3.6c-0.3,1.5-0.4,3-0.7,4.4c-0.1,0-0.1-0.1-0.2-0.1
	c-1.7-0.8-4.1-3-6.2-1.7c-1.1,0.5-1.8,1.6-2.6,2.2c-1.5,1-3,1.3-4.6,0.6c-1.3-0.5-1.6,0.4-1,1.4c0.5,0.8,1.3,1.4,2.1,2
	c0.7,0.4,1.4,0.8,2.2,0.8c1.2-0.1,2.6-0.6,3.6-0.5c0.9,0.2,1.8,0.6,2.7,0.9c0.8,0.3,1.7,0.5,2.5,0.5c0,0.2-0.1,0.3-0.1,0.5
	c-0.1,1.5,0,3,0.2,4.6c0.3,1.4,0.6,2.8,0.9,4.2c-0.5-0.2-1-0.3-1.5-0.2c-1,0.1-1.7,0.7-2.6,1.1c-0.8,0.3-2.1,0.5-2.6-0.2
	c-0.6-0.7-1-1.6-2-1.9c-0.7-0.1-0.6,0.8-0.6,1.3c0,0.8,0.4,1.5,0.8,2.2c0.6,1.1,1.5,2.1,2.6,2.9c1.3,0.9,2.6,1.3,3.9,2.1
	c1.1,0.7,2.1,1.6,3.4,2.1c0.6,0.3,1.2,0.5,1.9,0.6c0.3,0.8,0.7,1.6,1,2.4c1.1,2.6,2.4,5.1,3.3,7.7c-1.6-0.3-3.3-0.5-4.8-1.3
	c-0.9-0.4-2-1-2.9-1.7c-1.1-0.8-3.2-2.7-3.9-0.6c-0.3,1.2,0.2,2.4,0.9,3.3c0.9,1.2,2.1,2.3,2.7,3.6c1.1,3.2,1.8,7,4.5,9.5
	c1.1,1,2.2,2.1,3.8,2.2c0.3,0,0.6,0,0.9-0.1c0,0.1,0,0.3,0,0.4c0,1.1,0.1,2.2,0.3,3.3c-2.5,0.3-4.9,1.8-6.5,3.7
	c-1.8,2.4-3.3,5.1-4.3,7.9c-0.3,1-1,2.1-0.6,3.2c0.3,0.9,1.3,1.6,2.3,1.6c0.7,0,1.4-0.3,2.1-0.6c0.3-0.1,0.5-0.2,0.8-0.2
	c-0.1,0.8-0.4,1.6-0.9,2.2c-0.7,1-1.8,2.1-2.4,3.4c-1.3-0.8-2.8-0.9-4.2-0.4c-1.8,0.6-3,2.2-4.3,3.4c-0.8,0.8-1.4,1.3-2.6,1.5
	c-1,0.1-2.8,0-4,0.4c-1.2,0.3-2.1,1.3-2.6,2.5c-1.4,2.7-1.2,5.9-1.2,8.9c0.1,2.8,0.1,5.7,0.5,8.4c0.2,1,0.3,2.2,0.7,3.1
	C35.2,274.7,35.8,272.8,36,272.4L36,272.4z M101.8,203.3c0.5,0.9,0.9,1.7,1.3,2.6c0.4,0.8,0.8,1.5,1.2,2.3c0.1,0.2,0.2,0.5,0.3,0.7
	c-0.9,0-1.9,0.1-2.7-0.1c-0.6-0.1-1.3-0.5-1.9-0.4c0,0-0.1,0-0.1,0C100.3,206.8,101.1,205.1,101.8,203.3z M96.6,221.4
	c0.1-0.1,0.2-0.2,0.2-0.3c1.8-1.8,4.1-0.9,6.7,0.1c1.6,0.6,3.3,0.8,4.9,1.5c1.3,0.5,2.8,1.5,3.6,2.3c0.2,0.2,0.4,0.4,0.5,0.6
	c-1.4,0.9-2.5,2.1-3,3.8c-1,2.7-1,5.9-1.6,8.5c-0.5,1.9-1.4,3.5-2.7,4.9c-1-1.6-2.6-1.5-4.2-1c-0.8,0.2-1.5,0.3-1.9-0.1
	c-0.3-0.4-0.5-0.8-0.7-1.3c0.1,0.1,0.3,0.1,0.4,0.2c0.9,0.2,1.8,0.1,2.6,0c1.9-0.6,2.7-2.8,2.9-4.5c0-0.5,0-1-0.2-1.5
	c0.3-0.1,0.7-0.2,1-0.3c0.6-0.4,1.1-1,1.5-1.5c1-1.5,1.3-3.4,0.8-5.1c-0.9-3.7-4-4.9-7.5-4.9c-1.2-0.1-2.5-0.6-3.7-1.1
	C96.6,221.5,96.6,221.4,96.6,221.4L96.6,221.4z M92.4,242.9c0.9-0.2,1.8-0.4,2.4-1c0.7-0.6,1.2-1.5,1.3-2.5c0-0.3,0-0.6-0.1-0.8
	c0.1,0.1,0.2,0.2,0.3,0.3c-0.4,1.2-0.5,2.5-0.5,3.8c0,0.7,0,1.4,0.3,2c0,0,0,0.1,0,0.1c0.6,1.3,2,2.5,2.6,3.5
	c0.8,1.5,0.1,3.3-0.8,4.4c-1,1.3-2.3,2.3-3.5,3.4l-0.1-0.1c-0.2-0.4-0.5-0.7-0.8-1c-1.3-1.1-3-1.3-4.3-2.3c-0.6-0.4-0.8-1.1-0.5-1.6
	c0,0,0.1-0.1,0.1-0.1c0.2-0.1,0.4-0.2,0.6-0.4c1.5-0.9,3.1-2,3.3-3.8c0.1-0.9,0.1-1.8-0.1-2.7C92.6,243.7,92.5,243.3,92.4,242.9
	L92.4,242.9z M60.8,253.6c0.1,0,0.3-0.1,0.5-0.1c0.5,0,0.8,0,1.2,0.2c1.3,0.4,2.6,1.3,4,1.8c0,0,0,0-0.1,0.1
	c-0.4,1.1-1.2,1.9-2.4,2.2c-1,0.2-1.8,0.9-2.3,1.7c-0.1,0.2-0.3,0.4-0.4,0.6c0.1-0.4,0.3-0.7,0.4-1.1c0.3-1,0.3-2,0.1-3.1
	C61.6,255.1,61.3,254.3,60.8,253.6L60.8,253.6z M55.1,243.1c0.6-0.8,0.8-1.6,0.9-2.5c0.3-0.1,0.6-0.1,0.9-0.2
	c1.6-0.2,2.9,0.2,4.1,1.2c0.9,0.8,2,1.4,3.2,1.4c1.5-0.1,2.7-1,3.6-2.1c1.2,1.8,2.3,3.7,3.1,5.8c0.4,1.1,0.7,2.2,1,3.2
	c-0.3,0.1-0.6,0.2-0.9,0.2c-0.6,0-1.4-0.5-2.1-0.7c-2.2-0.6-4.5-0.3-6.7,0.4c-1.1,0.4-2.2,1.1-3,1.2c-0.1,0-0.2,0-0.3,0
	c-1.7-0.2-3.5-0.8-4.5-2.3c-0.5-0.7-0.8-1.4-1.4-2c-0.1-0.1-0.3-0.2-0.4-0.3C53.2,245.3,54.2,244.4,55.1,243.1L55.1,243.1z"/>
<path class="st0" d="M67.8,288.3c0.4,2.7,1.6,5.5,3.4,8.1c2.2,3.4,5.2,6.8,7.4,9.6c2,2.5,4.1,5,6.3,7.3c2.2,2.3,4.5,4.6,6.9,6.7
	c3.2,2.9,6.6,5.5,10.1,7.9c8.4,5.6,18,10.1,29.3,13.1c1.2,0.3,2.4-0.5,2.6-1.7c0.3-1.2-0.5-2.4-1.7-2.6l0,0
	c-11.1-2.2-20.6-5.9-28.9-11c-3.5-2.2-6.9-4.7-10-7.4c-2.3-2.1-4.5-4.3-6.6-6.6c-2.1-2.4-4-4.8-5.8-7.4c-2-2.9-4.7-6.3-6.6-9.7
	c-1.2-2.2-2.1-4.5-2.2-6.6c-0.1-1.2-1.2-2.1-2.4-2C68.5,286.1,67.6,287.1,67.8,288.3L67.8,288.3z M133.1,76.9
	c1.8-1.4,3.9-2.6,6.1-3.5c3.4-1.4,7.1-2.3,10.6-3c8.1-1.7,16.6-2,24.8-0.8c8.2,1.2,16.1,4.1,23.1,8.8c5.9,4,11,8.8,16.3,13.6
	c3.6,3.2,7.2,6.4,11,9.3c4.2,3,8.7,5.6,13.7,7.4c4.2,1.5,8.4,2.2,12.7,2.5c9.7,0.7,19.5-0.5,29.1,1.6c4,0.9,7.6,2.4,11.1,4.3
	c5.3,2.9,10,6.8,14.7,10.8c0.9,0.8,2.3,0.7,3.1-0.3c0.8-0.9,0.7-2.3-0.3-3.1c0,0,0,0,0,0c-5-4-10.1-7.9-15.7-10.8
	c-3.8-2-7.8-3.5-12.2-4.4c-9.9-1.9-19.8-0.4-29.6-1c-4-0.2-8-0.8-12-2.1c-4.9-1.6-9.2-4-13.2-6.9c-3.8-2.7-7.4-5.8-10.9-9
	c-5.3-4.8-10.5-9.9-16.4-13.9c-7.2-5.1-15.5-8.2-24-9.7c-8.5-1.5-17.4-1.4-25.9,0.1c-3.8,0.6-7.7,1.5-11.4,2.8c-2.6,1-5,2.2-7.2,3.8
	c-1,0.7-1.2,2.1-0.4,3.1C130.7,77.4,132.1,77.6,133.1,76.9L133.1,76.9z"/>
<path class="st2" d="M215.7,148.1c0-7.9-6.4-14.3-14.3-14.3H95.5c-7.9,0-14.3,6.4-14.3,14.3v149.4c0,7.9,6.4,14.3,14.3,14.3h105.8
	c7.9,0,14.3-6.4,14.3-14.3L215.7,148.1z"/>
<g>
	<defs>
		<path id="SVGID_1_" d="M215.7,148.1c0-7.9-6.4-14.3-14.3-14.3H95.5c-7.9,0-14.3,6.4-14.3,14.3v149.4c0,7.9,6.4,14.3,14.3,14.3
			h105.8c7.9,0,14.3-6.4,14.3-14.3L215.7,148.1z"/>
	</defs>
	<clipPath id="SVGID_2_">
		<use xlink:href="#SVGID_1_"  style="overflow:visible;"/>
	</clipPath>
	<g class="st3">
		<path class="st4" d="M231.6,157.1v-20.6c0-1.5-1.5-2.8-3.4-2.8H68.7c-1.9,0-3.4,1.2-3.4,2.8v20.6c0,1.5,1.5,2.8,3.4,2.8h159.4
			C230.1,159.9,231.6,158.6,231.6,157.1L231.6,157.1z"/>
		<circle class="st2" cx="96.1" cy="146.8" r="3.5"/>
		<circle class="st2" cx="107.4" cy="146.8" r="3.5"/>
		<circle class="st2" cx="118.9" cy="146.8" r="3.5"/>
	</g>
</g>
<circle class="st0" cx="120.2" cy="198.4" r="24.4"/>
<g>
	<defs>
		<circle id="SVGID_3_" cx="120.2" cy="198.4" r="24.4"/>
	</defs>
	<clipPath id="SVGID_4_">
		<use xlink:href="#SVGID_3_"  style="overflow:visible;"/>
	</clipPath>
	<g class="st5">
		<path class="st4" d="M96,210.5c12-19,17.5-20,24.2-12.5c6.7,7.6,8.8,9.8,16.4,6.3c7.7-3.5,11.2,0.3,13.6,5.5s-29.2,19.4-35,19.3
			C109.4,229,84.1,229.5,96,210.5L96,210.5z"/>
	</g>
</g>
<circle class="st4" cx="133.9" cy="185.1" r="8.6"/>
<g>
	<path class="st0" d="M143.6,242.1c0-1.2-1-2.1-2.1-2.1c0,0,0,0,0,0h-38.6c-1.2,0-2.1,1-2.1,2.1c0,0,0,0,0,0v0c0,1.2,1,2.1,2.1,2.1
		c0,0,0,0,0,0h38.6C142.7,244.2,143.6,243.3,143.6,242.1C143.6,242.1,143.6,242.1,143.6,242.1L143.6,242.1z"/>
	<path class="st0" d="M209.3,202.4c0-3.6-2.9-6.5-6.5-6.5h-44.7c-3.6,0-6.5,2.9-6.5,6.5c0,0,0,0,0,0v0c0,3.6,2.9,6.5,6.5,6.5
		c0,0,0,0,0,0h44.7C206.4,208.9,209.3,206,209.3,202.4L209.3,202.4z"/>
	<path class="st0" d="M140.9,272.1c0-1.2-1-2.1-2.1-2.1h-37.2c-1.2,0-2.1,1-2.1,2.1v0c0,1.2,1,2.1,2.1,2.1h37.2
		C140,274.2,140.9,273.3,140.9,272.1L140.9,272.1z M191.7,271.8c0-1.2-1-2.1-2.1-2.1h-37.2c-1.2,0-2.1,1-2.1,2.1v0
		c0,1.2,1,2.1,2.1,2.1h37.2C190.7,274,191.7,273,191.7,271.8L191.7,271.8z M191.7,250.1c0-0.6-0.2-1.1-0.6-1.5
		c-0.4-0.4-1-0.6-1.5-0.6h-86.7c-0.6,0-1.1,0.2-1.5,0.6c-0.4,0.4-0.6,0.9-0.6,1.5v0c0,0.6,0.2,1.1,0.6,1.5c0.4,0.4,1,0.6,1.5,0.6
		h86.7c0.6,0,1.1-0.2,1.5-0.6C191.5,251.2,191.7,250.6,191.7,250.1L191.7,250.1z M140.9,280c0-1.2-1-2.1-2.1-2.1h-37.2
		c-1.2,0-2.1,1-2.1,2.1v0c0,1.2,1,2.1,2.1,2.1h37.2C140,282.2,140.9,281.2,140.9,280L140.9,280z M191.7,279.8c0-1.2-1-2.1-2.1-2.1
		h-37.2c-1.2,0-2.1,1-2.1,2.1v0c0,1.2,1,2.1,2.1,2.1h37.2C190.7,281.9,191.7,281,191.7,279.8L191.7,279.8z M191.7,258.5
		c0-0.6-0.2-1.1-0.6-1.5c-0.4-0.4-1-0.6-1.5-0.6h-86.7c-0.6,0-1.1,0.2-1.5,0.6c-0.4,0.4-0.6,0.9-0.6,1.5v0c0,0.6,0.2,1.1,0.6,1.5
		c0.4,0.4,1,0.6,1.5,0.6h86.7c0.6,0,1.1-0.2,1.5-0.6C191.5,259.6,191.7,259.1,191.7,258.5L191.7,258.5z M140.9,288.5
		c0-1.2-1-2.1-2.1-2.1h-37.2c-1.2,0-2.1,1-2.1,2.1v0c0,1.2,1,2.1,2.1,2.1h37.2C140,290.6,140.9,289.7,140.9,288.5L140.9,288.5z
		 M191.7,288.3c0-1.2-1-2.1-2.1-2.1h-37.2c-1.2,0-2.1,1-2.1,2.1v0c0,1.2,1,2.1,2.1,2.1h37.2C190.7,290.4,191.7,289.4,191.7,288.3
		L191.7,288.3z"/>
</g>
<path class="st6" d="M299.5,159c8.5,0,14.7,7.8,13.5,18.4c-0.9,7.5-10,15.3-19.1,19.1c-7.8,3.2-7.9-8.6-7.9-19.3
	C286,166.5,291,159,299.5,159L299.5,159z"/>
<path class="st6" d="M293,215.4c8.2,18.9-46.5,79.5-64.8,78c-18.2-1.6-44.7-87.3-44.7-87.3l-7.7-10.1l20.3,2.6l-1.4,2.8
	c0,0,28.6,49.8,36.4,53.5c3.9,1.9,13.9-28.6,35.3-40.7C289.8,200.9,288.4,204.6,293,215.4z"/>
<g>
	<defs>
		<path id="SVGID_5_" d="M293,215.4c8.2,18.9-46.5,79.5-64.8,78c-18.2-1.6-44.7-87.3-44.7-87.3l-7.7-10.1l20.3,2.6l-1.4,2.8
			c0,0,28.6,49.8,36.4,53.5c3.9,1.9,13.9-28.6,35.3-40.7C289.8,200.9,288.4,204.6,293,215.4z"/>
	</defs>
	<clipPath id="SVGID_6_">
		<use xlink:href="#SVGID_5_"  style="overflow:visible;"/>
	</clipPath>
	<g class="st7">
		<path class="st8" d="M242,228c6-0.9,16,0.8,19.4,6.3c2,3.2,1.3,7,2.3,10.5c2.1,7.8,9.3,15.3,17.9,15c10.5-0.4,13.9-14.4,15.9-22.4
			c2.7-10.7,5.3-24.5-3.7-33c-1.6-1.5-3.4-2.7-5.4-3.7c-2.6-1.3-5.4-2.2-8.3-2.6c-3.6-0.6-7.4-0.6-11,0c-5.9,1.1-11.4,4.1-16,7.9
			c-5.9,5-10.3,11.1-13.7,18L242,228z"/>
	</g>
</g>
<path class="st4" d="M304.9,201.9c28.6,2.5,38.3,3.2,36.8,56.1c-1.5,54-72.5,52.1-72.5,52.1s10.4-33.8,2.1-62.6
	C261.2,212.8,284.7,200.1,304.9,201.9L304.9,201.9z"/>
<path class="st9" d="M234.9,189.1c0-5.2-4.2-9.4-9.4-9.4h-53.7c-5.2,0-9.4,4.2-9.4,9.4c0,5.2,4.2,9.4,9.4,9.4h53.7
	C230.7,198.5,234.9,194.3,234.9,189.1z"/>
<path class="st10" d="M191.9,198.5c-0.1-1.1,2.2-4.7,3.1-5.2c0.9-0.5,2.5,0.8,2.5,1.9c0.1,1.1-1.1,3.9-2,4.4
	C194.6,200.2,192,199.6,191.9,198.5z"/>
<path class="st4" d="M300.4,159c0,0,1.9,4.1,0.5,7.3c-0.4,0.9-1.2,1.5-1.9,2.1c-1.7,1.6-3.9,2.4-5.8,3.7c-0.6,0.4-1.7,1.1-1.7,2
	c0.1,0.9,2,0.5,2.5,0.4c2-0.6,3.6-1.3,4.7,0.3c1.1,1.7,0.2,5.8-0.9,8.6c-0.2,0.5-1.1,2.6-0.1,2.8c0.7,0.1,1.3-0.7,1.7-1.1
	c1.1-1.3,1.4-5.8,2.4-7.1c0.5-0.6,1.3-1.3,2-0.2c2.2,3.4,0,6.9-2.4,8.1c-2.9,1.4-3.3,8.5-3.3,8.5s6.3,2,8.3-3.1
	c3.5,1.2,10.1,0.4,10-6.3c6.2-2.6,9.1-12.4,3.3-15.8c0.8-0.4,1.4-1.6,1.6-2.5c2.4-8.4-7.5-17.9-16.8-12.6
	C302.5,155.2,301,156.7,300.4,159L300.4,159z"/>
<circle class="st11" cx="212.9" cy="329.3" r="31.7"/>
<path class="st2" d="M194.3,332l10.5,13.1c1.5,1.9,4.3,2.2,6.2,0.7c0.3-0.3,0.6-0.6,0.9-0.9l19.6-28.2c1.4-2,0.9-4.8-1.1-6.2
	c-2-1.4-4.8-0.9-6.2,1.1L208,335l-6.8-8.5c-1.5-1.9-4.3-2.2-6.2-0.7C193.1,327.4,192.8,330.1,194.3,332L194.3,332z"/>
<path class="st6" d="M327.8,207.9c20.5,1.8,50.5,74.1,37.8,94c-12.6,20-92.3,22-113.6,25.7c-16.2,14.1-22.8-3.4-20.5-3.5
	c10.3-0.1,10-8.4,10-8.4s0.2-0.9-2.7-4.4c3.2-2.3,10.4,4.3,10.4,4.3s76.8-29.6,83.8-34.6c3.5-2.5-18.2-25.9-19.1-50.4
	C313.7,222.3,316,206.9,327.8,207.9L327.8,207.9z"/>
<g>
	<defs>
		<path id="SVGID_7_" d="M327.8,207.9c20.5,1.8,50.5,74.1,37.8,94c-12.6,20-92.3,22-113.6,25.7c-16.2,14.1-22.8-3.4-20.5-3.5
			c10.3-0.1,10-8.4,10-8.4s0.2-0.9-2.7-4.4c3.2-2.3,10.4,4.3,10.4,4.3s76.8-29.6,83.8-34.6c3.5-2.5-18.2-25.9-19.1-50.4
			C313.7,222.3,316,206.9,327.8,207.9L327.8,207.9z"/>
	</defs>
	<clipPath id="SVGID_8_">
		<use xlink:href="#SVGID_7_"  style="overflow:visible;"/>
	</clipPath>
	<g class="st12">
		<path class="st8" d="M314.7,258.8c2.1-5.7,8.3-13.7,14.8-14.1c3.7-0.2,6.8,2.2,10.3,3c7.8,1.9,17.9-1,21.7-8.6
			c4.7-9.4-6.1-19-12.1-24.6c-8.2-7.4-19-16.3-30.8-12.4c-2.1,0.7-4,1.7-5.8,3c-2.4,1.7-4.5,3.8-6.2,6.1c-2.2,2.9-4,6.2-5.2,9.7
			c-1.9,5.7-1.8,12-0.6,17.8c1.6,7.6,4.9,14.3,9.4,20.6L314.7,258.8z"/>
	</g>
</g>
<g>
	<path class="st4" d="M172.4,193.2l-1.8-1.4c0.6-0.6,1.1-1.2,1.7-1.8c0.2-0.2,0.4-0.4,0.5-0.4c-0.2,0-0.7-0.2-1.7-0.4
		c-0.7-0.2-1.1-0.3-1.3-0.4l0.7-2.1c1,0.4,1.9,0.9,2.7,1.4c-0.2-1.3-0.3-2.3-0.3-3.1h2.1c0,0.6-0.1,1.6-0.3,3.1
		c0.2-0.1,0.5-0.2,1-0.5c0.7-0.3,1.3-0.6,1.9-0.8l0.6,2.1c-0.9,0.2-1.9,0.4-3,0.6l1.4,1.6c0.3,0.3,0.5,0.6,0.7,0.8l-1.8,1.2
		l-1.6-2.6C173.5,191.4,173,192.3,172.4,193.2z"/>
	<path class="st4" d="M181.6,193.2l-1.8-1.4c0.6-0.6,1.1-1.2,1.7-1.8c0.2-0.2,0.4-0.4,0.5-0.4c-0.2,0-0.7-0.2-1.7-0.4
		c-0.7-0.2-1.1-0.3-1.3-0.4l0.7-2.1c1,0.4,1.9,0.9,2.7,1.4c-0.2-1.3-0.3-2.3-0.3-3.1h2.1c0,0.6-0.1,1.6-0.3,3.1
		c0.2-0.1,0.5-0.2,1-0.5c0.7-0.3,1.3-0.6,1.9-0.8l0.6,2.1c-0.9,0.2-1.9,0.4-3,0.6l1.4,1.6c0.3,0.3,0.5,0.6,0.7,0.8l-1.8,1.2
		l-1.6-2.6C182.8,191.4,182.2,192.3,181.6,193.2z"/>
	<path class="st4" d="M190.9,193.2l-1.8-1.4c0.6-0.6,1.1-1.2,1.7-1.8c0.2-0.2,0.4-0.4,0.5-0.4c-0.2,0-0.7-0.2-1.7-0.4
		c-0.7-0.2-1.1-0.3-1.3-0.4l0.7-2.1c1,0.4,1.9,0.9,2.7,1.4c-0.2-1.3-0.3-2.3-0.3-3.1h2.1c0,0.6-0.1,1.6-0.3,3.1
		c0.2-0.1,0.5-0.2,1-0.5c0.7-0.3,1.3-0.6,1.9-0.8l0.6,2.1c-0.9,0.2-1.9,0.4-3,0.6l1.4,1.6c0.3,0.3,0.5,0.6,0.7,0.8l-1.8,1.2
		l-1.6-2.6C192.1,191.4,191.5,192.3,190.9,193.2z"/>
	<path class="st4" d="M200.2,193.2l-1.8-1.4c0.6-0.6,1.1-1.2,1.7-1.8c0.2-0.2,0.4-0.4,0.5-0.4c-0.2,0-0.7-0.2-1.7-0.4
		c-0.7-0.2-1.1-0.3-1.3-0.4l0.7-2.1c1,0.4,1.9,0.9,2.7,1.4c-0.2-1.3-0.3-2.3-0.3-3.1h2.1c0,0.6-0.1,1.6-0.3,3.1
		c0.2-0.1,0.5-0.2,1-0.5c0.7-0.3,1.3-0.6,1.9-0.8l0.6,2.1c-0.9,0.2-1.9,0.4-3,0.6l1.4,1.6c0.3,0.3,0.5,0.6,0.7,0.8l-1.8,1.2
		l-1.6-2.6C201.4,191.4,200.8,192.3,200.2,193.2z"/>
	<path class="st4" d="M209.5,193.2l-1.8-1.4c0.6-0.6,1.1-1.2,1.7-1.8c0.2-0.2,0.4-0.4,0.5-0.4c-0.2,0-0.7-0.2-1.7-0.4
		c-0.7-0.2-1.1-0.3-1.3-0.4l0.7-2.1c1,0.4,1.9,0.9,2.7,1.4c-0.2-1.3-0.3-2.3-0.3-3.1h2.1c0,0.6-0.1,1.6-0.3,3.1
		c0.2-0.1,0.5-0.2,1-0.5c0.7-0.3,1.3-0.6,1.9-0.8l0.6,2.1c-0.9,0.2-1.9,0.4-3,0.6l1.4,1.6c0.3,0.3,0.5,0.6,0.7,0.8l-1.8,1.2
		l-1.6-2.6C210.6,191.4,210.1,192.3,209.5,193.2z"/>
	<path class="st4" d="M218.8,193.2l-1.8-1.4c0.6-0.6,1.1-1.2,1.7-1.8c0.2-0.2,0.4-0.4,0.5-0.4c-0.2,0-0.7-0.2-1.7-0.4
		c-0.7-0.2-1.1-0.3-1.3-0.4l0.7-2.1c1,0.4,1.9,0.9,2.7,1.4c-0.2-1.3-0.3-2.3-0.3-3.1h2.1c0,0.6-0.1,1.6-0.3,3.1
		c0.2-0.1,0.5-0.2,1-0.5c0.7-0.3,1.3-0.6,1.9-0.8l0.6,2.1c-0.9,0.2-1.9,0.4-3,0.6l1.4,1.6c0.3,0.3,0.5,0.6,0.7,0.8l-1.8,1.2
		l-1.6-2.6C219.9,191.4,219.4,192.3,218.8,193.2z"/>
</g>
</svg>
