<svg xmlns="http://www.w3.org/2000/svg" xmlns:xlink="http://www.w3.org/1999/xlink" width="681.392" height="520.775" viewBox="0 0 681.392 520.775">
  <defs>
    <linearGradient id="linear-gradient" x1="0.461" y1="-0.532" x2="0.626" y2="3.17" gradientUnits="objectBoundingBox">
      <stop offset="0" stop-opacity="0"/>
      <stop offset="0.99"/>
    </linearGradient>
    <linearGradient id="linear-gradient-2" x1="0.501" y1="1.036" x2="0.497" y2="-1.019" gradientUnits="objectBoundingBox">
      <stop offset="0" stop-color="#97a0c4"/>
      <stop offset="0.649" stop-color="#fff"/>
      <stop offset="0.99" stop-color="#eee"/>
      <stop offset="1"/>
    </linearGradient>
    <linearGradient id="linear-gradient-3" x1="1.9" y1="-0.454" x2="-0.908" y2="1.46" gradientUnits="objectBoundingBox">
      <stop offset="0" stop-color="#eee"/>
      <stop offset="0.99" stop-color="#c4cef3"/>
      <stop offset="1"/>
    </linearGradient>
    <linearGradient id="linear-gradient-4" x1="2.206" y1="-0.229" x2="-1.216" y2="1.234" gradientUnits="objectBoundingBox">
      <stop offset="0" stop-opacity="0"/>
      <stop offset="0.99" stop-color="#c4cef3"/>
      <stop offset="1"/>
    </linearGradient>
    <linearGradient id="linear-gradient-5" x1="0.518" y1="1.538" x2="0.475" y2="0.314" xlink:href="#linear-gradient"/>
    <linearGradient id="linear-gradient-6" x1="0.502" y1="-2.249" x2="0.496" y2="5.316" gradientUnits="objectBoundingBox">
      <stop offset="0" stop-opacity="0"/>
      <stop offset="0.99" stop-color="
#1B2844"/>
      <stop offset="1"/>
    </linearGradient>
  </defs>
  <g id="password-monochromatic" transform="translate(0.158 0)">
    <path id="Path_32" data-name="Path 32" d="M638.945,167.978c-27.8-31.58-63.419-55.075-98.637-78.182C497.732,61.822,453.3,33.12,402.863,26.183c-48.171-6.63-97.36,7.568-140.049,30.869S182.95,112.37,146.1,144.128l-86.72,74.8c-18.24,15.733-37,32.114-47.378,53.846C3.188,291.21,1.1,312.3,2.784,332.605A174.539,174.539,0,0,0,65.928,452.264c25.193,20.423,55.576,33.31,85.8,45.179,55.528,21.733,112.77,40.91,172.162,46.246,63.419,5.708,127.064-4.56,189.9-14.8C590.953,516.329,635.226,483.52,648,407.505c6.937-41.137,29.429-78.409,34.151-119.658C687.277,243.428,667.679,200.69,638.945,167.978Z" transform="translate(-1.732 -24.55)" fill="#c6c6c6" opacity="0.18"/>
    <rect id="Rectangle_19" data-name="Rectangle 19" width="512.234" height="361.982" rx="13.42" transform="translate(115.05 53.2)" fill="#97a0c4"/>
    <rect id="Rectangle_20" data-name="Rectangle 20" width="477.453" height="332.23" rx="12.41" transform="translate(132.498 65.505)" fill="#fff"/>
    <path id="Path_33" data-name="Path 33" d="M388.089,268.989l-75.126-37.563H72.03V144.69H417.7l-30.739,62.077Z" transform="translate(44.54 89.274)" fill="url(#linear-gradient)"/>
    <path id="Path_34" data-name="Path 34" d="M436.327,100.185V269.5a22.363,22.363,0,0,1-22.3,22.363H69.365A22.315,22.315,0,0,1,47.05,269.5V100.185A22.315,22.315,0,0,1,69.365,77.87H414.029a22.347,22.347,0,0,1,22.3,22.315Z" transform="translate(25.909 8.349)" fill="#ffd200"/>
    <path id="Path_35" data-name="Path 35" d="M182.359,115.532a4.123,4.123,0,0,1-5.223-2.345l-3.913-10.4A11.61,11.61,0,1,0,151.506,111l5.418,14.31a4.038,4.038,0,0,1,.194.728h-8.57l-4.608-12.176a19.694,19.694,0,1,1,36.838-13.94l3.927,10.382a4.043,4.043,0,0,1-2.345,5.223Z" transform="translate(84.9 14.103)" fill="#fff"/>
    <rect id="Rectangle_21" data-name="Rectangle 21" width="582.8" height="40.975" rx="12.02" transform="translate(74.075 411.77)" fill="#6b7596"/>
    <path id="Path_41" data-name="Path 41" d="M12.02,0H570.78A12.02,12.02,0,0,1,582.8,12.02V28.955a12.02,12.02,0,0,1-12.02,12.02H12.02A12.02,12.02,0,0,1,0,28.955V12.02A12.02,12.02,0,0,1,12.02,0Z" transform="translate(74.075 411.77)" fill="url(#linear-gradient-2)"/>
    <path id="Path_36" data-name="Path 36" d="M225.25,189.958l68.3,59.182V176.86Z" transform="translate(139.077 109.123)" fill="#ffd200"/>
    <rect id="Rectangle_23" data-name="Rectangle 23" width="283.816" height="48.575" rx="6.19" transform="translate(123.394 206.491)" fill="#fff"/>
    <rect id="Rectangle_24" data-name="Rectangle 24" width="53.119" height="49.076" transform="translate(226.785 140.243)" fill="url(#linear-gradient-3)"/>
    <rect id="Rectangle_25" data-name="Rectangle 25" width="33.31" height="49.076" transform="translate(246.529 140.146)" fill="url(#linear-gradient-4)"/>
    <path id="Path_37" data-name="Path 37" d="M159.313,128.9s-5.239-4.366-.663-8.085,9.7,4.043,4.851,8.085l3.412,9.1H155.4Z" transform="translate(92.762 34.24)" fill="url(#linear-gradient-5)"/>
    <circle id="Ellipse_2" data-name="Ellipse 2" cx="10.139" cy="10.139" r="10.139" transform="translate(153.891 219.508)"/>
    <circle id="Ellipse_3" data-name="Ellipse 3" cx="10.139" cy="10.139" r="10.139" transform="translate(181.234 219.508)"/>
    <circle id="Ellipse_4" data-name="Ellipse 4" cx="10.139" cy="10.139" r="10.139" transform="translate(208.578 219.508)"/>
    <circle id="Ellipse_5" data-name="Ellipse 5" cx="10.139" cy="10.139" r="10.139" transform="translate(235.921 219.508)"/>
    <circle id="Ellipse_6" data-name="Ellipse 6" cx="10.139" cy="10.139" r="10.139" transform="translate(265.415 219.508)"/>
    <circle id="Ellipse_7" data-name="Ellipse 7" cx="10.139" cy="10.139" r="10.139" transform="translate(292.759 219.508)"/>
    <circle id="Ellipse_8" data-name="Ellipse 8" cx="10.139" cy="10.139" r="10.139" transform="translate(320.102 219.508)"/>
    <circle id="Ellipse_9" data-name="Ellipse 9" cx="10.139" cy="10.139" r="10.139" transform="translate(347.462 219.508)"/>
    <path id="Path_38" data-name="Path 38" d="M65.227,89.606a8.085,8.085,0,0,1-7.406-4.851L40.358,44.524A8.1,8.1,0,1,1,55.2,38.056L72.65,78.3a8.085,8.085,0,0,1-7.422,11.319Z" transform="translate(21.363 -19.218)" fill="#ffd200"/>
    <path id="Path_39" data-name="Path 39" d="M10.189,109.484a8.089,8.089,0,0,1-.534-16.17l43.74-2.927a8.1,8.1,0,0,1,1.083,16.17l-43.756,2.911Z" transform="translate(-1.99 16.06)" fill="#ffd200"/>
    <path id="Path_40" data-name="Path 40" d="M52.695,93.15a7.988,7.988,0,0,1-4.479-1.391L11.882,67.117A8.085,8.085,0,1,1,20.97,53.743L57.238,78.387A8.085,8.085,0,0,1,52.695,93.15Z" transform="translate(2.025 -7.401)" fill="#ffd200"/>
    <rect id="Rectangle_26" data-name="Rectangle 26" width="118.235" height="12.144" transform="translate(307.797 412.142)" fill="url(#linear-gradient-6)"/>
  </g>
</svg>
